<svg id="Layer_1" data-name="Layer 1" xmlns="http://www.w3.org/2000/svg" viewBox="0 0 450 450"><defs><style>.cls-1{fill:#287eb6;}.cls-2,.cls-9{fill:#15003e;}.cls-15,.cls-3{fill:#fff;}.cls-4{fill:#e6e7e8;}.cls-11,.cls-5,.cls-8{fill:#193c72;}.cls-16,.cls-5,.cls-6{stroke:#000;}.cls-10,.cls-11,.cls-12,.cls-5,.cls-6{stroke-miterlimit:10;}.cls-11,.cls-14,.cls-15,.cls-16,.cls-17,.cls-5{stroke-width:4px;}.cls-6,.cls-7{fill:#bd1522;}.cls-10,.cls-12,.cls-6{stroke-width:3px;}.cls-9{opacity:0.14;isolation:isolate;}.cls-10,.cls-16{fill:#be1624;}.cls-10,.cls-11,.cls-12,.cls-13,.cls-14,.cls-15,.cls-17{stroke:#15003e;}.cls-12{fill:#eebc8b;}.cls-13{fill:#3eb977;stroke-width:3.24px;}.cls-14{fill:#ffce08;}.cls-14,.cls-15,.cls-16,.cls-17{stroke-linecap:round;}.cls-17{fill:none;}.cls-18{fill:#0fce7c;}.cls-19{fill:#eff4ee;}</style></defs><title>packArtboard 1</title><polygon id="Path" class="cls-1" points="419.4 112.5 419.4 337.5 224.9 450 69.4 360 68.6 359.7 30.4 337.5 30.4 112.5 224.9 0 419.4 112.5"/><path id="Path-2" data-name="Path" class="cls-2" d="M271.8,403.7l5.5-3.2.3.4a9.45,9.45,0,0,1,1.2,2.8,6.15,6.15,0,0,1,0,2.7,6.87,6.87,0,0,1-3.5,4.8,7.57,7.57,0,0,1-5.9.8,7.77,7.77,0,0,1-4.8-3.7,8.07,8.07,0,0,1-.8-6.1,7.35,7.35,0,0,1,3.8-4.8,7.49,7.49,0,0,1,3.3-1,11.42,11.42,0,0,1,3.8.6l-.7,2.2a5.81,5.81,0,0,0-5.3.1,5.57,5.57,0,0,0-2.7,3.5,5.33,5.33,0,0,0,.7,4.4,5.53,5.53,0,0,0,3.7,2.8,5.45,5.45,0,0,0,4-.5,4.7,4.7,0,0,0,2.1-2.5,4,4,0,0,0-.1-3.2l-3.3,1.9Z"/><polygon id="Rectangle" class="cls-2" points="280.8 390.2 282.8 389.1 290.4 402.3 288.4 403.5 280.8 390.2"/><polygon id="Path-3" data-name="Path" class="cls-2" points="295.3 384.3 301.8 395.7 299.8 396.9 293.3 385.5 290.2 387.2 289.1 385.4 297.2 380.7 298.3 382.5 295.3 384.3"/><path id="Path-4" data-name="Path" class="cls-2" d="M313.3,372.4l1.3,2.3a6.3,6.3,0,0,0-4.4.6,5.24,5.24,0,0,0-2.6,3.4,5.33,5.33,0,0,0,.7,4.4,5.89,5.89,0,0,0,3.4,2.8,5.07,5.07,0,0,0,4.3-.6,3.71,3.71,0,0,0,1.6-1.4,4.7,4.7,0,0,0,.6-.9,8.93,8.93,0,0,0,.5-1.3l1.4,2.4a9.19,9.19,0,0,1-3.1,3.1,7.88,7.88,0,0,1-6,.8,7.77,7.77,0,0,1-4.8-3.7,7.51,7.51,0,0,1-.9-5.5,7.67,7.67,0,0,1,3.9-5.5,10.13,10.13,0,0,1,4.1-.9"/><path id="Shape" class="cls-3" d="M323.9,373.4a7.76,7.76,0,0,1-.8-6,7.13,7.13,0,0,1,3.8-4.8,7.88,7.88,0,0,1,6-.8,7.28,7.28,0,0,1,4.8,3.7,7.88,7.88,0,0,1,.8,6,7.35,7.35,0,0,1-3.8,4.8,8,8,0,0,1-5.7.9,7,7,0,0,1-5.1-3.8m2-1.1a5.35,5.35,0,0,0,3.6,2.8,5.86,5.86,0,0,0,4.3-.5,5.33,5.33,0,0,0,2.7-3.5,5.69,5.69,0,0,0-.6-4.4,6.21,6.21,0,0,0-3.4-2.8,5.07,5.07,0,0,0-4.3.6,5.38,5.38,0,0,0-2.7,3.4,5.24,5.24,0,0,0,.4,4.4"/><polygon id="Rectangle-2" data-name="Rectangle" class="cls-2" points="340.3 355.9 342.3 354.7 349.9 368 347.9 369.2 340.3 355.9"/><polygon id="Path-5" data-name="Path" class="cls-2" points="357.7 363.5 349.5 349.3 365.1 353.9 359.7 344.6 361.7 343.6 369.8 357.7 354.3 353.1 359.7 362.4 357.7 363.5"/><polygon id="Path-6" data-name="Path" class="cls-3" points="387 131.1 387 317.7 225.3 411.1 63.8 317.7 63.8 131.1 225.3 37.7 387 131.1"/><circle class="cls-4" cx="225.4" cy="227.4" r="113.4"/><rect class="cls-3" x="76.56" y="151.2" width="228.3" height="21.3" transform="translate(-54.77 113.82) rotate(-29.25)"/><rect class="cls-3" x="94.3" y="182.9" width="228.3" height="21.3" transform="translate(-67.99 126.53) rotate(-29.25)"/><rect class="cls-3" x="111.99" y="214.51" width="228.3" height="21.3" transform="translate(-81.18 139.2) rotate(-29.25)"/><rect class="cls-3" x="129.76" y="246.07" width="228.3" height="21.3" transform="translate(-94.34 151.91) rotate(-29.25)"/><rect class="cls-3" x="147.5" y="277.77" width="228.3" height="21.3" transform="translate(-107.56 164.61) rotate(-29.25)"/><path id="Mask" class="cls-5" d="M189.7,226.7h69.4a7.92,7.92,0,0,1,7.9,7.9v85.1a7.92,7.92,0,0,1-7.9,7.9H189.7a7.92,7.92,0,0,1-7.9-7.9V234.6A7.85,7.85,0,0,1,189.7,226.7Z"/><path class="cls-6" d="M224.4,286.1a63,63,0,0,1,63,63c0,34.8-27.7,41.6-63,63-31.6-19.8-63-28.2-63-63A63,63,0,0,1,224.4,286.1Z"/><circle class="cls-3" cx="224.4" cy="349" r="44.8"/><circle class="cls-7" cx="224.4" cy="349" r="30.2"/><circle class="cls-8" cx="224.4" cy="349" r="25"/><path class="cls-9" d="M214.2,261.4H199.4a6.59,6.59,0,0,1-6.6-6.6V240a6.59,6.59,0,0,1,6.6-6.6h14.8a6.59,6.59,0,0,1,6.6,6.6v14.8A6.73,6.73,0,0,1,214.2,261.4Z"/><path class="cls-9" d="M248.6,261.4H233.8a6.59,6.59,0,0,1-6.6-6.6V240a6.59,6.59,0,0,1,6.6-6.6h14.8a6.59,6.59,0,0,1,6.6,6.6v14.8A6.73,6.73,0,0,1,248.6,261.4Z"/><path class="cls-9" d="M220.5,281.8h-5.8a2.65,2.65,0,0,1-2.6-2.6v-5.8a2.65,2.65,0,0,1,2.6-2.6h5.8a2.65,2.65,0,0,1,2.6,2.6v5.8A2.65,2.65,0,0,1,220.5,281.8Z"/><path class="cls-9" d="M234,281.8h-5.8a2.65,2.65,0,0,1-2.6-2.6v-5.8a2.65,2.65,0,0,1,2.6-2.6H234a2.65,2.65,0,0,1,2.6,2.6v5.8A2.65,2.65,0,0,1,234,281.8Z"/><path d="M240.9,221.9H208.6a1.58,1.58,0,0,1-1.6-1.6h0a1.58,1.58,0,0,1,1.6-1.6h32.3a1.58,1.58,0,0,1,1.6,1.6h0A1.64,1.64,0,0,1,240.9,221.9Z"/><path class="cls-5" d="M152.2,249.7h15.7a4.8,4.8,0,0,0,4.8-4.8V229.2a4.8,4.8,0,0,0-4.8-4.8H152.2a4.8,4.8,0,0,0-4.8,4.8v15.7A4.87,4.87,0,0,0,152.2,249.7Z"/><path class="cls-10" d="M266.8,172.1h0a6.59,6.59,0,0,1-6.6-6.6v-4.3a6.59,6.59,0,0,1,6.6-6.6h0a6.59,6.59,0,0,1,6.6,6.6v4.3A6.53,6.53,0,0,1,266.8,172.1Z"/><path class="cls-10" d="M184.4,172.1h0a6.59,6.59,0,0,1-6.6-6.6v-4.3a6.59,6.59,0,0,1,6.6-6.6h0a6.59,6.59,0,0,1,6.6,6.6v4.3A6.53,6.53,0,0,1,184.4,172.1Z"/><path class="cls-5" d="M281.7,248.2h15.7a4.8,4.8,0,0,0,4.8-4.8V227.7a4.8,4.8,0,0,0-4.8-4.8H281.7a4.8,4.8,0,0,0-4.8,4.8v15.7A4.8,4.8,0,0,0,281.7,248.2Z"/><path class="cls-3" d="M224.9,361.4l3-6a1.56,1.56,0,0,1,.8-.6l6.5-1a1.1,1.1,0,0,0,.6-1.9l-4.8-4.7a1,1,0,0,1-.3-1l1.2-6.5a1.12,1.12,0,0,0-1.6-1.2l-5.9,3.1a.91.91,0,0,1-1,0l-5.9-3.2a1.12,1.12,0,0,0-1.6,1.2l1.1,6.5a1.21,1.21,0,0,1-.3,1l-4.9,4.7a1.1,1.1,0,0,0,.6,1.9l6.7,1a1,1,0,0,1,.8.6l3,6A1.06,1.06,0,0,0,224.9,361.4Z"/><path class="cls-11" d="M225.8,109c23.3,0,42.1,23.5,42.1,52.5s-84.2,29-84.2,0S202.5,109,225.8,109Z"/><path class="cls-12" d="M267.8,162.8c0,4.1-5,14.9-10.9,25.6-6.8,12.2-17.3,23.8-31.1,23.8-25.9,0-41.7-42.1-41.7-48.9,12.3,4,2.4-.2,41.7,14.8C242.7,172.4,252.3,169,267.8,162.8Z"/><path class="cls-2" d="M232.7,194.6H219.4a1.58,1.58,0,0,1-1.6-1.6h0a1.58,1.58,0,0,1,1.6-1.6h13.3a1.58,1.58,0,0,1,1.6,1.6h0A1.58,1.58,0,0,1,232.7,194.6Z"/><path class="cls-9" d="M240,114l-16.3,53.1L236,173l30-12.1C265.9,160.9,267.8,129,240,114Z"/><circle class="cls-13" cx="226" cy="168.1" r="14.4"/><circle class="cls-3" cx="232" cy="162.8" r="2.8"/><circle class="cls-3" cx="235" cy="167.3" r="1.3"/><g id="Group-5-Copy"><path id="Rectangle-3" data-name="Rectangle" class="cls-5" d="M157.2,211.9l-8.1-7.5a4.83,4.83,0,0,1-.3-6.7l20.8-22.5a4.83,4.83,0,0,1,6.7-.3l8.1,7.5a4.83,4.83,0,0,1,.3,6.7l-20.8,22.5A4.66,4.66,0,0,1,157.2,211.9Z"/><path id="Line" class="cls-14" d="M162.2,205.3l-7-6.5"/><circle id="Oval" class="cls-15" cx="172.4" cy="187.4" r="4.7"/><path id="Rectangle-4" data-name="Rectangle" class="cls-16" d="M188.8,176.7l-6.6-6.6c-.3-.4-.1-1.1.5-1.7l12.2-12.3c.6-.6,1.4-.8,1.7-.5l6.6,6.6c.3.4.1,1.1-.5,1.7l-12.2,12.3C189.9,176.9,189.2,177.1,188.8,176.7Z"/><path id="Rectangle-5" data-name="Rectangle" class="cls-2" d="M176,182.9h0a1.57,1.57,0,0,1,0-2.2l7.2-7.2a1.57,1.57,0,0,1,2.2,0h0a1.57,1.57,0,0,1,0,2.2l-7.2,7.2A1.48,1.48,0,0,1,176,182.9Z"/></g><g id="Group-5-Copy-2" data-name="Group-5-Copy"><path id="Rectangle-6" data-name="Rectangle" class="cls-5" d="M289.8,257.3l9.2,6.1a4.76,4.76,0,0,1,1.3,6.6l-17,25.6a4.76,4.76,0,0,1-6.6,1.3l-9.2-6.1a4.76,4.76,0,0,1-1.3-6.6l17-25.6A4.71,4.71,0,0,1,289.8,257.3Z"/><path id="Line-2" data-name="Line" class="cls-14" d="M285.9,264.6l7.9,5.3"/><circle id="Oval-2" data-name="Oval" class="cls-15" cx="278.7" cy="283.9" r="4.7"/><path id="Combined-Shape" class="cls-17" d="M251,310.9a6.25,6.25,0,0,1,1-2.2c2.6-3.8,7.9-4.6,12.1-1.9s5.5,8.1,3,11.9a5.81,5.81,0,0,1-1.7,1.8Z"/><path id="Rectangle-7" data-name="Rectangle" class="cls-16" d="M261.5,294.3l14.4,9.6a1.7,1.7,0,0,1,.5,2.2l-9.6,14.4a1.7,1.7,0,0,1-2.2.5l-14.4-9.6a1.7,1.7,0,0,1-.5-2.2l9.6-14.4A1.52,1.52,0,0,1,261.5,294.3Z"/><path id="Rectangle-8" data-name="Rectangle" class="cls-2" d="M276.1,287.9h0a1.7,1.7,0,0,1,.5,2.2l-5.7,8.5a1.7,1.7,0,0,1-2.2.5h0a1.7,1.7,0,0,1-.5-2.2l5.7-8.5A1.54,1.54,0,0,1,276.1,287.9Z"/></g><path class="cls-3" d="M230.11,130.5l1.59,3.11-1.16,5.07-2.82-2.32.51-3.69Z"/><path class="cls-2" d="M225.91,129.42a.57.57,0,0,1-.58-.58v-4.63a.57.57,0,0,1,.58-.58.62.62,0,0,1,.58.58h0v4.63a.57.57,0,0,1-.58.58"/><path class="cls-2" d="M226.85,129.42H225a.56.56,0,0,1-.57-.58.62.62,0,0,1,.57-.58h1.81a.58.58,0,1,1,0,1.16"/><path class="cls-3" d="M230.11,130.5l1.95-1.8a8.08,8.08,0,0,0-5.79-2.39,8.25,8.25,0,0,0,0,16.49c1.67,0,3.19.65,4.49-.29l1.59.22-.07-2.68-4.63-3.69,1-4.7,1.45-1.16"/><path class="cls-2" d="M226.2,143.45a9,9,0,0,1,0-18.08,8.84,8.84,0,0,1,6.37,2.67l.58.58L230.61,131l-1.08-1.16,1.3-1.23A7.48,7.48,0,0,0,226.2,127a7.38,7.38,0,0,0,0,14.76"/><path class="cls-18" d="M230.76,138.82l-1.16-1.16a4.5,4.5,0,0,0,1.3-3.25,4.71,4.71,0,0,0-1.44-3.4l-.58-.58.65-.58.58.58.5-.58a6.34,6.34,0,0,1,1.88,4.56,6.16,6.16,0,0,1-1.73,4.41"/><path class="cls-19" d="M224.32,134.48a1.88,1.88,0,1,1,1.88,1.88,1.87,1.87,0,0,1-1.88-1.88"/><path class="cls-2" d="M226.2,133.4a1.09,1.09,0,0,0,0,2.17,1.09,1.09,0,1,0,0-2.17m0,3.69a2.68,2.68,0,1,1,2.68-2.68,2.67,2.67,0,0,1-2.68,2.68m5.79-8.47-4.7,4.34"/><path class="cls-2" d="M227.87,133.54l-1.09-1.16,4.7-4.34,1.09,1.16Z"/><path class="cls-3" d="M227.07,136.07l3.4,2.54,1.81,1.37v3.47l-3.69-.14"/><path class="cls-2" d="M233.07,143.45h-7v-1.59h5.42v-1.45l-4.84-3.69.94-1.3,5.49,4.13Z"/><path class="cls-2" d="M223.09,131.08a.57.57,0,0,1-.58-.58v-6.29a.57.57,0,0,1,.58-.58.62.62,0,0,1,.58.58v6.29a.62.62,0,0,1-.58.58"/><path id="Shape-2" data-name="Shape" class="cls-4" d="M225.5,37.8l-162,93.5V320.7L225.2,415l162-97V131.3ZM381.3,314.4,225.6,407.5,70.7,316.9V134.8L226,45.5l155.3,89.6Z"/></svg>